<?xml version="1.0" encoding="utf-8"?>
<!-- Generator: Adobe Illustrator 16.0.0, SVG Export Plug-In . SVG Version: 6.00 Build 0)  -->
<!DOCTYPE svg PUBLIC "-//W3C//DTD SVG 1.1//EN" "http://www.w3.org/Graphics/SVG/1.1/DTD/svg11.dtd">
<svg version="1.1" id="Layer_1" xmlns="http://www.w3.org/2000/svg" xmlns:xlink="http://www.w3.org/1999/xlink" x="0px" y="0px"
	 width="69.127px" height="18.532px" viewBox="0 0 69.127 18.532" enable-background="new 0 0 69.127 18.532" xml:space="preserve">
<g>
	<g>
		<path fill="#CC0000" d="M10.736,1.293c0.156-0.496,0.26-0.927,0.313-1.293c0.053,0.025,0.197,0.085,0.432,0.176
			c0.234,0.092,0.482,0.215,0.744,0.372c0.262,0.157,0.496,0.359,0.705,0.607s0.314,0.528,0.314,0.842c0,0.131,0,0.229,0,0.294
			c0,0.064-0.02,0.15-0.059,0.255c-0.039,0.104-0.098,0.235-0.178,0.392c-0.078,0.157-0.195,0.393-0.352,0.705
			c-0.156,0.288-0.359,0.726-0.607,1.313c-0.248,0.587-0.529,1.253-0.842,1.998c-0.314,0.744-0.641,1.542-0.98,2.39
			c-0.34,0.85-0.66,1.679-0.959,2.488c-0.301,0.81-0.576,1.574-0.824,2.292c-0.248,0.719-0.438,1.313-0.566,1.783
			c0,0.025-0.053,0.248-0.158,0.666c-0.104,0.417-0.156,1.069-0.156,1.959c-0.313,0-0.725-0.139-1.234-0.412
			c-0.51-0.273-1.012-0.68-1.508-1.214c-0.496-0.535-0.941-1.208-1.332-2.02c-0.393-0.809-0.641-1.749-0.744-2.82
			c-0.289,0.811-0.51,1.488-0.666,2.037c-0.08,0.209-0.158,0.444-0.236,0.705c-0.053,0.235-0.104,0.51-0.156,0.823
			c-0.052,0.313-0.078,0.68-0.078,1.097c-0.053,0-0.164-0.025-0.334-0.078c-0.17-0.052-0.352-0.138-0.549-0.255
			c-0.195-0.117-0.365-0.287-0.508-0.509C0.072,15.667,0,15.373,0,15.006c0-0.496,0.086-1.137,0.256-1.92
			c0.17-0.784,0.385-1.612,0.646-2.488c0.26-0.875,0.549-1.764,0.861-2.664c0.314-0.9,0.613-1.724,0.9-2.468
			c0.287-0.745,0.535-1.377,0.746-1.9C3.618,3.044,3.747,2.717,3.8,2.587l0.275-0.823c0.156-0.496,0.26-0.927,0.313-1.293
			C4.441,0.497,4.584,0.555,4.82,0.646c0.234,0.092,0.482,0.215,0.744,0.372c0.26,0.157,0.496,0.359,0.705,0.607
			c0.209,0.249,0.314,0.528,0.314,0.842c0,0.131-0.014,0.268-0.041,0.412C6.518,3.023,6.465,3.187,6.387,3.37
			C6.152,3.918,5.904,4.559,5.643,5.29c-0.262,0.73-0.504,1.502-0.725,2.311c-0.223,0.811-0.406,1.641-0.549,2.488
			c-0.145,0.849-0.215,1.679-0.215,2.487c0,1.07,0.162,1.952,0.49,2.645c0.326,0.692,0.711,1.261,1.154,1.705
			c0.025-0.287,0.125-0.797,0.295-1.528c0.17-0.729,0.391-1.572,0.666-2.526c0.273-0.953,0.58-1.965,0.92-3.036
			c0.34-1.07,0.68-2.104,1.02-3.095c0.338-0.993,0.666-1.9,0.979-2.724c0.314-0.823,0.574-1.456,0.785-1.899L10.736,1.293z"/>
		<path fill="#CC0000" d="M21.51,12.185c0.105,0.078,0.158,0.131,0.158,0.157c0,0.052-0.086,0.307-0.256,0.764
			s-0.41,0.96-0.725,1.51c-0.313,0.548-0.699,1.045-1.156,1.487c-0.457,0.444-0.973,0.666-1.547,0.666
			c-0.418,0-0.83-0.176-1.234-0.527c-0.404-0.353-0.672-0.986-0.803-1.9c-0.156,0.261-0.348,0.535-0.568,0.822
			c-0.223,0.288-0.465,0.549-0.725,0.784c-0.262,0.233-0.549,0.431-0.863,0.588c-0.313,0.155-0.639,0.233-0.979,0.233
			c-0.496,0-0.967-0.241-1.41-0.725c-0.443-0.484-0.666-1.195-0.666-2.136c0-0.627,0.084-1.286,0.254-1.979
			c0.17-0.691,0.373-1.356,0.607-1.998c0.234-0.64,0.471-1.215,0.705-1.724c0.236-0.51,0.418-0.907,0.549-1.195
			c0.104-0.208,0.273-0.521,0.51-0.939c0.234-0.417,0.391-0.758,0.471-1.02c0.025,0,0.129,0.059,0.313,0.176
			c0.182,0.118,0.379,0.263,0.588,0.432c0.209,0.17,0.398,0.365,0.568,0.588c0.17,0.222,0.254,0.45,0.254,0.686
			c0,0.078-0.014,0.229-0.039,0.451s-0.104,0.398-0.234,0.529c-0.209,0.443-0.471,0.939-0.783,1.487
			c-0.314,0.55-0.615,1.117-0.902,1.705c-0.287,0.588-0.529,1.183-0.725,1.782c-0.195,0.603-0.293,1.163-0.293,1.686
			c0,0.34,0.045,0.613,0.137,0.822c0.092,0.209,0.279,0.313,0.568,0.313c0.365,0,0.803-0.209,1.313-0.627
			c0.51-0.417,0.984-1.149,1.43-2.194c0.104-0.757,0.273-1.515,0.51-2.271c0.234-0.758,0.477-1.431,0.725-2.019
			c0.248-0.588,0.477-1.063,0.686-1.43c0.209-0.365,0.34-0.548,0.391-0.548c0.184,0,0.398,0.046,0.646,0.137
			c0.248,0.092,0.504,0.203,0.766,0.333c0.287,0.131,0.588,0.288,0.9,0.47c-0.184,0.418-0.438,0.915-0.764,1.489
			c-0.326,0.574-0.646,1.182-0.961,1.821c-0.313,0.641-0.588,1.279-0.822,1.92s-0.352,1.248-0.352,1.821
			c0,0.287,0.031,0.522,0.098,0.705c0.064,0.184,0.215,0.274,0.449,0.274c0.34,0,0.791-0.268,1.354-0.804
			c0.561-0.535,1.102-1.403,1.625-2.605l0.078-0.039C21.406,12.146,21.457,12.16,21.51,12.185z"/>
		<path fill="#CC0000" d="M30.012,6.622c0.156,0.104,0.234,0.183,0.234,0.234l-0.039,0.04c-0.443,0.366-0.973,0.889-1.586,1.567
			c-0.613,0.68-1.221,1.411-1.822,2.194c0.078,0.837,0.209,1.619,0.393,2.352c0.182,0.731,0.365,1.365,0.549,1.899
			c0.182,0.535,0.346,0.96,0.488,1.272c0.145,0.313,0.229,0.484,0.256,0.51l-0.275,0.196c-0.209-0.026-0.457-0.171-0.744-0.432
			c-0.287-0.262-0.582-0.581-0.881-0.96c-0.301-0.378-0.588-0.776-0.863-1.194c-0.273-0.418-0.502-0.81-0.686-1.176
			c-0.391,0.602-0.725,1.137-0.998,1.605c-0.275,0.471-0.465,0.85-0.568,1.137c0-0.025-0.025,0.007-0.078,0.099
			c-0.053,0.092-0.125,0.195-0.215,0.313c-0.092,0.116-0.211,0.229-0.354,0.332c-0.145,0.104-0.307,0.156-0.49,0.156
			c-0.104,0-0.242-0.007-0.41-0.02c-0.172-0.015-0.334-0.078-0.49-0.195c-0.156-0.118-0.295-0.301-0.412-0.549
			s-0.176-0.62-0.176-1.117c0-0.705,0.117-1.565,0.354-2.586c0.234-1.019,0.521-2.057,0.861-3.114
			c0.338-1.058,0.691-2.077,1.057-3.056c0.367-0.979,0.68-1.796,0.941-2.449c0.209-0.521,0.432-1.063,0.666-1.626
			c0.234-0.562,0.379-1.13,0.432-1.705c0.051,0.026,0.195,0.085,0.43,0.176c0.236,0.093,0.484,0.217,0.744,0.373
			c0.262,0.156,0.496,0.347,0.707,0.568c0.207,0.222,0.313,0.49,0.313,0.803c0,0.34-0.066,0.653-0.195,0.94
			c-0.131,0.261-0.334,0.666-0.607,1.214c-0.275,0.549-0.582,1.182-0.922,1.9s-0.686,1.476-1.037,2.271
			c-0.354,0.797-0.68,1.574-0.98,2.331c-0.301,0.758-0.549,1.47-0.744,2.136c-0.195,0.666-0.293,1.222-0.293,1.665
			c0.783-1.41,1.605-2.638,2.467-3.683c0.863-1.045,1.646-1.9,2.352-2.567c0.705-0.666,1.516-1.324,2.43-1.979
			C29.867,6.531,29.934,6.569,30.012,6.622z"/>
		<path fill="#CC0000" d="M38.084,12.146c0.104,0.026,0.156,0.078,0.156,0.156c0,0.026-0.105,0.281-0.313,0.765
			c-0.211,0.483-0.563,1.007-1.059,1.567s-1.15,1.077-1.959,1.547c-0.811,0.471-1.803,0.706-2.979,0.706
			c-0.705,0-1.287-0.171-1.744-0.51s-0.809-0.744-1.057-1.215s-0.426-0.953-0.529-1.449c-0.105-0.496-0.156-0.901-0.156-1.215
			c0-0.783,0.15-1.548,0.449-2.292c0.301-0.745,0.68-1.411,1.137-1.998c0.457-0.588,0.973-1.059,1.547-1.411
			c0.574-0.354,1.137-0.529,1.686-0.529c0.758,0,1.34,0.099,1.744,0.293c0.404,0.196,0.705,0.425,0.9,0.687
			c0.197,0.261,0.314,0.521,0.354,0.784c0.04,0.262,0.059,0.458,0.059,0.589c0,0.73-0.145,1.332-0.432,1.803
			c-0.287,0.47-0.646,0.842-1.076,1.116c-0.432,0.273-0.895,0.471-1.393,0.588c-0.496,0.117-0.953,0.176-1.371,0.176
			c-0.443,0-0.811-0.045-1.098-0.137c-0.287-0.091-0.508-0.202-0.666-0.333c-0.131,0.47-0.195,0.875-0.195,1.215
			c0,0.313,0.039,0.62,0.117,0.921c0.078,0.3,0.217,0.567,0.412,0.803c0.195,0.236,0.457,0.426,0.783,0.568
			c0.326,0.143,0.738,0.215,1.234,0.215c0.836,0,1.58-0.162,2.234-0.489c0.651-0.325,1.2-0.697,1.646-1.115
			c0.444-0.418,0.776-0.805,1-1.156c0.221-0.354,0.332-0.555,0.332-0.607v-0.039h0.038l0.08-0.039c0.025,0,0.045,0.008,0.06,0.021
			C38.037,12.14,38.058,12.146,38.084,12.146z M31.227,10.07c-0.262,0.287-0.496,0.666-0.705,1.137
			c0.549,0.131,1.043,0.124,1.488-0.021c0.443-0.144,0.809-0.353,1.098-0.627c0.287-0.273,0.496-0.567,0.627-0.881
			c0.131-0.313,0.17-0.549,0.117-0.706c0-0.078-0.301-0.117-0.902-0.117c-0.209,0-0.482,0.111-0.822,0.333
			C31.787,9.411,31.486,9.704,31.227,10.07z"/>
		<path fill="#CC0000" d="M43.528,3.213c-0.184,0.366-0.522,1.052-1.02,2.057c-0.496,1.006-1.012,2.104-1.547,3.292
			c-0.535,1.189-1.006,2.357-1.41,3.507c-0.406,1.149-0.607,2.052-0.607,2.703c0,0.549,0.222,0.823,0.666,0.823
			c0.443,0,0.992-0.268,1.646-0.804c0.654-0.535,1.24-1.403,1.765-2.605l0.078-0.039c0.077,0,0.157,0.039,0.235,0.117l0.078,0.079
			c0-0.053-0.06,0.15-0.179,0.606c-0.116,0.458-0.325,0.967-0.625,1.527c-0.301,0.563-0.713,1.084-1.233,1.567
			c-0.522,0.482-1.203,0.725-2.039,0.725c-0.209,0-0.431-0.033-0.666-0.098c-0.233-0.065-0.457-0.189-0.666-0.372
			s-0.385-0.432-0.526-0.745c-0.146-0.313-0.218-0.729-0.218-1.253c0-0.914,0.171-1.979,0.511-3.193
			c0.34-1.214,0.725-2.402,1.155-3.564s0.843-2.207,1.234-3.135c0.391-0.928,0.651-1.573,0.782-1.939l0.273-0.823
			c0.078-0.234,0.15-0.47,0.217-0.705c0.064-0.234,0.098-0.431,0.098-0.588c0.054,0.026,0.195,0.085,0.433,0.176
			c0.233,0.093,0.481,0.217,0.744,0.373c0.26,0.156,0.496,0.347,0.705,0.568s0.313,0.49,0.313,0.803
			C43.726,2.612,43.66,2.926,43.528,3.213z"/>
		<path fill="#CC0000" d="M53.795,12.342c-0.026,0.078-0.125,0.359-0.295,0.842c-0.17,0.483-0.41,0.986-0.726,1.509
			c-0.313,0.522-0.69,0.999-1.135,1.431c-0.445,0.432-0.955,0.646-1.529,0.646c-0.34,0-0.659-0.098-0.959-0.294
			c-0.301-0.194-0.596-0.606-0.883-1.232c-0.104,0.131-0.229,0.286-0.371,0.47c-0.145,0.183-0.328,0.353-0.549,0.51
			c-0.223,0.156-0.49,0.287-0.803,0.393c-0.314,0.104-0.693,0.155-1.137,0.155c-0.602,0-1.092-0.143-1.469-0.431
			c-0.379-0.287-0.674-0.633-0.883-1.038s-0.353-0.836-0.431-1.293s-0.119-0.843-0.119-1.156c0-0.651,0.14-1.364,0.412-2.135
			c0.274-0.771,0.66-1.489,1.156-2.155c0.495-0.666,1.098-1.221,1.803-1.665c0.705-0.443,1.488-0.667,2.351-0.667
			c0.522,0,0.914,0.066,1.176,0.196c0.262,0.131,0.535,0.274,0.822,0.431c0.078-0.156,0.149-0.313,0.217-0.47
			c0.063-0.157,0.109-0.287,0.137-0.392c0.025,0,0.131,0.059,0.313,0.176c0.185,0.118,0.387,0.273,0.607,0.47
			c0.223,0.196,0.426,0.411,0.607,0.646c0.184,0.234,0.274,0.458,0.274,0.666c0,0.131-0.026,0.301-0.077,0.509
			c-0.054,0.209-0.185,0.458-0.394,0.745c-0.472,0.836-0.929,1.736-1.371,2.703c-0.444,0.967-0.666,1.854-0.666,2.664
			c0,0.313,0.03,0.563,0.099,0.744c0.063,0.184,0.215,0.274,0.45,0.274c0.339,0,0.789-0.268,1.353-0.804
			c0.561-0.535,1.104-1.403,1.625-2.605l0.078-0.039c0.158,0,0.248,0.039,0.274,0.117C53.78,12.342,53.795,12.369,53.795,12.342z
			 M48.112,14.615c-0.024-0.132-0.038-0.248-0.038-0.354c0-0.104,0-0.222,0-0.354c0-0.758,0.11-1.555,0.334-2.391
			c0.221-0.836,0.475-1.619,0.764-2.351c-0.209-0.209-0.394-0.365-0.549-0.472c-0.156-0.104-0.394-0.155-0.705-0.155
			c-0.472,0-0.94,0.144-1.41,0.431c-0.471,0.288-0.901,0.66-1.293,1.117c-0.394,0.457-0.713,0.966-0.961,1.527
			c-0.248,0.563-0.371,1.131-0.371,1.704c0,0.287,0.021,0.574,0.06,0.861c0.039,0.288,0.123,0.563,0.254,0.823
			s0.326,0.47,0.588,0.627c0.26,0.156,0.613,0.234,1.059,0.234c0.627,0,1.115-0.162,1.469-0.489
			C47.662,15.052,47.931,14.797,48.112,14.615z"/>
		<path fill="#CC0000" d="M62.847,12.459c0.051,0.053,0.077,0.104,0.077,0.156c0,0.025-0.098,0.177-0.295,0.45
			c-0.194,0.274-0.481,0.574-0.86,0.901c-0.379,0.326-0.843,0.633-1.392,0.92c-0.549,0.288-1.176,0.458-1.881,0.51
			c-0.233,0.131-0.466,0.274-0.687,0.432c-0.223,0.156-0.457,0.308-0.705,0.45c-0.248,0.144-0.543,0.269-0.883,0.372
			c-0.34,0.104-0.744,0.156-1.213,0.156c-0.627,0-1.145-0.156-1.549-0.47c-0.404-0.314-0.607-0.953-0.607-1.92
			c0-0.889,0.164-1.952,0.49-3.193c0.326-1.24,0.691-2.449,1.098-3.624c0.404-1.175,0.81-2.239,1.215-3.192
			c0.404-0.953,0.687-1.601,0.843-1.939l0.272-0.823c0.078-0.234,0.15-0.47,0.217-0.705c0.064-0.234,0.099-0.431,0.099-0.588
			c0.052,0.026,0.194,0.085,0.431,0.176C57.752,0.621,58,0.745,58.263,0.901c0.26,0.156,0.493,0.347,0.704,0.568
			c0.209,0.222,0.313,0.49,0.313,0.803c0,0.366-0.146,0.85-0.432,1.45c-0.287,0.602-0.73,1.528-1.332,2.782
			c0.313-0.104,0.692-0.157,1.137-0.157c0.574,0,1.051,0.105,1.43,0.313c0.379,0.209,0.68,0.47,0.902,0.783
			c0.221,0.313,0.377,0.653,0.469,1.02s0.139,0.706,0.139,1.018c0,1.099-0.197,2.025-0.588,2.782
			c-0.393,0.758-0.771,1.372-1.137,1.842c0.549-0.155,1-0.333,1.352-0.528c0.354-0.195,0.641-0.386,0.861-0.567
			c0.223-0.183,0.426-0.393,0.607-0.627L62.847,12.459z M54.539,15.281c0.024,0.286,0.248,0.431,0.666,0.431
			c0.442,0,0.965-0.157,1.565-0.47c-0.496,0-0.92-0.217-1.272-0.646c-0.353-0.432-0.595-0.804-0.726-1.117
			c-0.104,0.393-0.17,0.738-0.194,1.038C54.551,14.817,54.539,15.073,54.539,15.281z M58.063,14.301
			c0.496-0.444,0.935-1.025,1.313-1.744c0.379-0.718,0.567-1.456,0.567-2.214c0-0.443-0.024-0.796-0.077-1.058
			c-0.054-0.262-0.117-0.457-0.195-0.588c-0.077-0.131-0.164-0.216-0.256-0.255s-0.188-0.059-0.293-0.059
			c-0.472,0-0.89,0.137-1.254,0.411c-0.365,0.274-0.666,0.606-0.899,1c-0.236,0.392-0.421,0.815-0.55,1.272
			c-0.131,0.457-0.196,0.855-0.196,1.194c0,0.523,0.139,0.974,0.411,1.354C56.908,13.994,57.385,14.222,58.063,14.301z"/>
		<path fill="#CC0000" d="M68.135,6.7c0.025,0.131,0.031,0.262,0.021,0.392c-0.014,0.131-0.033,0.222-0.059,0.274
			c0.024,0.627,0.168,1.409,0.43,2.351s0.457,2.012,0.588,3.213c0.053,0.653-0.045,1.229-0.293,1.726
			c-0.25,0.495-0.588,0.913-1.021,1.254c-0.432,0.34-0.92,0.601-1.469,0.782c-0.549,0.183-1.084,0.274-1.606,0.274
			c-0.601,0-1.115-0.098-1.547-0.294c-0.433-0.196-0.791-0.444-1.078-0.744c-0.287-0.301-0.502-0.627-0.646-0.979
			c-0.143-0.354-0.215-0.687-0.215-0.999c0-0.394,0.098-0.738,0.293-1.039c0.197-0.301,0.479-0.477,0.844-0.528
			c0.234-0.393,0.496-0.849,0.783-1.372c0.287-0.521,0.58-1.051,0.881-1.587c0.301-0.535,0.582-1.051,0.844-1.547
			c0.26-0.496,0.496-0.914,0.705-1.254c0.051-0.104,0.109-0.248,0.176-0.432c0.064-0.182,0.123-0.358,0.176-0.528
			c0.054-0.169,0.117-0.32,0.197-0.451c0.078-0.13,0.156-0.196,0.234-0.196c0.287,0.184,0.561,0.366,0.822,0.548
			c0.209,0.157,0.404,0.333,0.588,0.529C67.965,6.289,68.082,6.491,68.135,6.7z M64.451,15.515c0.313,0,0.618-0.052,0.92-0.156
			c0.301-0.104,0.582-0.255,0.844-0.45c0.261-0.195,0.47-0.438,0.627-0.726c0.156-0.287,0.234-0.601,0.234-0.939
			c0-0.313-0.06-0.68-0.177-1.098c-0.116-0.418-0.256-0.854-0.412-1.313c-0.155-0.458-0.307-0.901-0.45-1.332
			c-0.144-0.432-0.254-0.816-0.332-1.156c-0.445,0.653-0.914,1.326-1.41,2.018c-0.496,0.692-0.94,1.313-1.332,1.861
			c0.521-0.13,0.945-0.195,1.272-0.195c0.326,0,0.476-0.014,0.449-0.039c0.025,0,0.053,0.014,0.078,0.039
			c0.053,0.054,0.08,0.132,0.08,0.234c0,0.079-0.139,0.146-0.412,0.196c-0.272,0.053-0.582,0.131-0.92,0.234
			c-0.34,0.104-0.646,0.234-0.922,0.393c-0.273,0.156-0.412,0.392-0.412,0.705c0,0.157,0.061,0.333,0.178,0.528
			s0.273,0.38,0.47,0.549c0.196,0.171,0.438,0.319,0.727,0.45C63.838,15.451,64.138,15.515,64.451,15.515z"/>
	</g>
</g>
</svg>
